<svg width="20" height="20" viewBox="0 0 20 20" fill="none" xmlns="http://www.w3.org/2000/svg">
<path d="M9.99999 1.66666C8.35182 1.66666 6.74065 2.1554 5.37024 3.07108C3.99983 3.98675 2.93173 5.28824 2.301 6.81096C1.67027 8.33368 1.50524 10.0092 1.82678 11.6257C2.14833 13.2423 2.942 14.7271 4.10744 15.8925C5.27287 17.058 6.75773 17.8517 8.37424 18.1732C9.99075 18.4947 11.6663 18.3297 13.189 17.699C14.7117 17.0683 16.0132 16.0002 16.9289 14.6297C17.8446 13.2593 18.3333 11.6482 18.3333 9.99999C18.3333 8.90564 18.1178 7.82201 17.699 6.81096C17.2802 5.79991 16.6664 4.88125 15.8925 4.10743C15.1187 3.33361 14.2001 2.71978 13.189 2.30099C12.178 1.8822 11.0943 1.66666 9.99999 1.66666V1.66666ZM9.99999 16.6667C8.68145 16.6667 7.39252 16.2757 6.29619 15.5431C5.19986 14.8106 4.34538 13.7694 3.8408 12.5512C3.33621 11.333 3.20419 9.99259 3.46143 8.69939C3.71866 7.40618 4.3536 6.21829 5.28595 5.28594C6.2183 4.35359 7.40618 3.71866 8.69939 3.46142C9.9926 3.20419 11.333 3.33621 12.5512 3.84079C13.7694 4.34538 14.8106 5.19986 15.5431 6.29619C16.2757 7.39252 16.6667 8.68145 16.6667 9.99999C16.6667 11.7681 15.9643 13.4638 14.714 14.714C13.4638 15.9643 11.7681 16.6667 9.99999 16.6667V16.6667ZM13.3333 9.16666H10.8333V6.66666C10.8333 6.44564 10.7455 6.23368 10.5892 6.0774C10.433 5.92112 10.221 5.83332 9.99999 5.83332C9.77898 5.83332 9.56702 5.92112 9.41074 6.0774C9.25446 6.23368 9.16666 6.44564 9.16666 6.66666V9.16666H6.66666C6.44565 9.16666 6.23368 9.25445 6.0774 9.41073C5.92112 9.56702 5.83333 9.77898 5.83333 9.99999C5.83333 10.221 5.92112 10.433 6.0774 10.5892C6.23368 10.7455 6.44565 10.8333 6.66666 10.8333H9.16666V13.3333C9.16666 13.5543 9.25446 13.7663 9.41074 13.9226C9.56702 14.0789 9.77898 14.1667 9.99999 14.1667C10.221 14.1667 10.433 14.0789 10.5892 13.9226C10.7455 13.7663 10.8333 13.5543 10.8333 13.3333V10.8333H13.3333C13.5543 10.8333 13.7663 10.7455 13.9226 10.5892C14.0789 10.433 14.1667 10.221 14.1667 9.99999C14.1667 9.77898 14.0789 9.56702 13.9226 9.41073C13.7663 9.25445 13.5543 9.16666 13.3333 9.16666Z" fill="white"/>
</svg>
