<svg width="20" height="20" viewBox="0 0 20 20" fill="none" xmlns="http://www.w3.org/2000/svg">
<path d="M9.99999 1.66666C8.35182 1.66666 6.74065 2.1554 5.37024 3.07108C3.99983 3.98675 2.93173 5.28824 2.301 6.81096C1.67027 8.33368 1.50524 10.0092 1.82678 11.6257C2.14833 13.2423 2.942 14.7271 4.10744 15.8925C5.27287 17.058 6.75773 17.8517 8.37424 18.1732C9.99075 18.4947 11.6663 18.3297 13.189 17.699C14.7117 17.0683 16.0132 16.0002 16.9289 14.6297C17.8446 13.2593 18.3333 11.6482 18.3333 9.99999C18.3333 8.90564 18.1178 7.82201 17.699 6.81096C17.2802 5.79991 16.6664 4.88125 15.8925 4.10743C15.1187 3.33361 14.2001 2.71978 13.189 2.30099C12.178 1.8822 11.0943 1.66666 9.99999 1.66666ZM9.99999 16.6667C8.23188 16.6667 6.53619 15.9643 5.28595 14.714C4.03571 13.4638 3.33333 11.7681 3.33333 9.99999C3.33149 8.51944 3.82751 7.08128 4.74166 5.91666L14.0833 15.2583C12.9187 16.1725 11.4805 16.6685 9.99999 16.6667ZM15.2583 14.0833L5.91666 4.74166C7.08128 3.8275 8.51945 3.33148 9.99999 3.33332C11.7681 3.33332 13.4638 4.0357 14.714 5.28594C15.9643 6.53619 16.6667 8.23188 16.6667 9.99999C16.6685 11.4805 16.1725 12.9187 15.2583 14.0833Z" fill="white"/>
</svg>
