<svg width="20" height="20" viewBox="0 0 20 20" fill="none" xmlns="http://www.w3.org/2000/svg">
<path d="M15.8333 16.6667H4.16666C3.94565 16.6667 3.73369 16.7545 3.57741 16.9108C3.42113 17.067 3.33333 17.279 3.33333 17.5C3.33333 17.721 3.42113 17.933 3.57741 18.0893C3.73369 18.2456 3.94565 18.3333 4.16666 18.3333H15.8333C16.0543 18.3333 16.2663 18.2456 16.4226 18.0893C16.5789 17.933 16.6667 17.721 16.6667 17.5C16.6667 17.279 16.5789 17.067 16.4226 16.9108C16.2663 16.7545 16.0543 16.6667 15.8333 16.6667ZM7.25833 6.42502L9.16666 4.50835V14.1667C9.16666 14.3877 9.25446 14.5997 9.41074 14.7559C9.56702 14.9122 9.77898 15 9.99999 15C10.221 15 10.433 14.9122 10.5893 14.7559C10.7455 14.5997 10.8333 14.3877 10.8333 14.1667V4.50835L12.7417 6.42502C12.8191 6.50312 12.9113 6.56512 13.0128 6.60742C13.1144 6.64973 13.2233 6.67151 13.3333 6.67151C13.4433 6.67151 13.5523 6.64973 13.6538 6.60742C13.7554 6.56512 13.8475 6.50312 13.925 6.42502C14.0031 6.34755 14.0651 6.25538 14.1074 6.15383C14.1497 6.05228 14.1715 5.94336 14.1715 5.83335C14.1715 5.72334 14.1497 5.61442 14.1074 5.51287C14.0651 5.41132 14.0031 5.31915 13.925 5.24168L10.5917 1.90835C10.5124 1.83248 10.419 1.77301 10.3167 1.73335C10.1138 1.65 9.88621 1.65 9.68333 1.73335C9.58104 1.77301 9.48758 1.83248 9.40833 1.90835L6.07499 5.24168C5.9973 5.31938 5.93566 5.41162 5.89361 5.51314C5.85156 5.61466 5.82992 5.72347 5.82992 5.83335C5.82992 5.94323 5.85156 6.05204 5.89361 6.15356C5.93566 6.25507 5.9973 6.34732 6.07499 6.42502C6.15269 6.50271 6.24494 6.56435 6.34645 6.6064C6.44797 6.64845 6.55678 6.67009 6.66666 6.67009C6.77654 6.67009 6.88535 6.64845 6.98687 6.6064C7.08839 6.56435 7.18063 6.50271 7.25833 6.42502Z" fill="white"/>
</svg>
