<svg width="20" height="20" viewBox="0 0 20 20" fill="none" xmlns="http://www.w3.org/2000/svg">
<path d="M8.33334 14.625L6.85834 16.0583C6.47156 16.4451 5.94699 16.6624 5.40001 16.6624C4.85302 16.6624 4.32845 16.4451 3.94167 16.0583C3.5549 15.6716 3.33761 15.147 3.33761 14.6C3.33761 14.053 3.5549 13.5284 3.94167 13.1417L7.72501 9.35C8.09635 8.97745 8.59669 8.7619 9.12252 8.74794C9.64834 8.73398 10.1594 8.92268 10.55 9.275L10.65 9.35833C10.808 9.51304 11.021 9.59864 11.2422 9.59629C11.4633 9.59395 11.6745 9.50386 11.8292 9.34583C11.9839 9.18781 12.0695 8.97479 12.0671 8.75366C12.0648 8.53252 11.9747 8.32137 11.8167 8.16666C11.7696 8.10585 11.7196 8.04744 11.6667 7.99166C10.9553 7.37276 10.0353 7.04737 9.09298 7.08141C8.15067 7.11545 7.25653 7.50638 6.59167 8.175L2.75834 11.9667C2.10697 12.6757 1.75469 13.6089 1.77507 14.5715C1.79545 15.534 2.18691 16.4515 2.8677 17.1323C3.54849 17.8131 4.46598 18.2046 5.42855 18.2249C6.39112 18.2453 7.32434 17.893 8.03334 17.2417L9.47501 15.8333C9.61735 15.678 9.6956 15.4746 9.69401 15.2639C9.69242 15.0533 9.61111 14.851 9.46643 14.6979C9.32176 14.5448 9.12445 14.4522 8.91423 14.4386C8.704 14.4251 8.49645 14.4917 8.33334 14.625ZM17.2417 2.75833C16.5407 2.06167 15.5925 1.67065 14.6042 1.67065C13.6159 1.67065 12.6677 2.06167 11.9667 2.75833L10.525 4.16666C10.3827 4.32196 10.3044 4.5254 10.306 4.73605C10.3076 4.94671 10.3889 5.14894 10.5336 5.30207C10.6783 5.45519 10.8756 5.54784 11.0858 5.56137C11.296 5.5749 11.5036 5.50831 11.6667 5.375L13.1083 3.94166C13.4951 3.55489 14.0197 3.3376 14.5667 3.3376C15.1137 3.3376 15.6382 3.55489 16.025 3.94166C16.4118 4.32844 16.6291 4.85302 16.6291 5.4C16.6291 5.94698 16.4118 6.47156 16.025 6.85833L12.2417 10.65C11.8703 11.0225 11.37 11.2381 10.8442 11.2521C10.3183 11.266 9.80726 11.0773 9.41667 10.725L9.31667 10.6417C9.15865 10.487 8.94564 10.4014 8.7245 10.4037C8.50336 10.406 8.29222 10.4961 8.13751 10.6542C7.9828 10.8122 7.8972 11.0252 7.89954 11.2463C7.90189 11.4675 7.99198 11.6786 8.15001 11.8333C8.21054 11.8952 8.27453 11.9537 8.34167 12.0083C9.0539 12.6254 9.97353 12.9495 10.9153 12.9155C11.857 12.8815 12.7508 12.4918 13.4167 11.825L17.2083 8.03333C17.9094 7.33673 18.3065 6.39102 18.3127 5.4027C18.319 4.41439 17.9339 3.46374 17.2417 2.75833Z" fill="white"/>
</svg>
