<svg width="20" height="20" viewBox="0 0 20 20" fill="none" xmlns="http://www.w3.org/2000/svg">
<path d="M11.175 10L16.425 4.75834C16.5819 4.60142 16.6701 4.38859 16.6701 4.16667C16.6701 3.94475 16.5819 3.73192 16.425 3.575C16.2681 3.41808 16.0552 3.32993 15.8333 3.32993C15.6114 3.32993 15.3986 3.41808 15.2417 3.575L10 8.825L4.75833 3.575C4.60141 3.41808 4.38858 3.32993 4.16666 3.32993C3.94475 3.32993 3.73192 3.41808 3.575 3.575C3.41808 3.73192 3.32992 3.94475 3.32992 4.16667C3.32992 4.38859 3.41808 4.60142 3.575 4.75834L8.825 10L3.575 15.2417C3.49689 15.3191 3.4349 15.4113 3.39259 15.5129C3.35028 15.6144 3.3285 15.7233 3.3285 15.8333C3.3285 15.9433 3.35028 16.0523 3.39259 16.1538C3.4349 16.2554 3.49689 16.3475 3.575 16.425C3.65247 16.5031 3.74463 16.5651 3.84618 16.6074C3.94773 16.6497 4.05665 16.6715 4.16666 16.6715C4.27667 16.6715 4.3856 16.6497 4.48714 16.6074C4.58869 16.5651 4.68086 16.5031 4.75833 16.425L10 11.175L15.2417 16.425C15.3191 16.5031 15.4113 16.5651 15.5128 16.6074C15.6144 16.6497 15.7233 16.6715 15.8333 16.6715C15.9433 16.6715 16.0523 16.6497 16.1538 16.6074C16.2554 16.5651 16.3475 16.5031 16.425 16.425C16.5031 16.3475 16.5651 16.2554 16.6074 16.1538C16.6497 16.0523 16.6715 15.9433 16.6715 15.8333C16.6715 15.7233 16.6497 15.6144 16.6074 15.5129C16.5651 15.4113 16.5031 15.3191 16.425 15.2417L11.175 10Z" fill="white"/>
</svg>
