<svg width="20" height="20" viewBox="0 0 20 20" fill="none" xmlns="http://www.w3.org/2000/svg">
<path d="M3.96667 8.82501C4.18768 8.85374 4.41105 8.7935 4.58765 8.65754C4.76425 8.52157 4.8796 8.32102 4.90833 8.10001C4.93706 7.879 4.87682 7.65562 4.74086 7.47902C4.60489 7.30243 4.40435 7.18708 4.18333 7.15834L2.71667 6.79168C2.60974 6.7589 2.49731 6.74798 2.38607 6.75956C2.27483 6.77115 2.16706 6.80501 2.06919 6.85913C1.97131 6.91325 1.88533 6.98651 1.81637 7.07456C1.74741 7.1626 1.69687 7.26363 1.66778 7.37162C1.63868 7.47961 1.63162 7.59235 1.64702 7.70312C1.66241 7.8139 1.69995 7.92044 1.75739 8.0164C1.81483 8.11236 1.89099 8.19578 1.98135 8.26169C2.07171 8.32759 2.17441 8.37463 2.28333 8.40001L3.75 8.79168C3.81981 8.81497 3.89308 8.82625 3.96667 8.82501ZM7.18333 4.16668C7.23217 4.34848 7.34111 4.50839 7.49243 4.62037C7.64375 4.73234 7.82853 4.78979 8.01667 4.78334C8.08843 4.79487 8.16157 4.79487 8.23333 4.78334C8.44484 4.72483 8.62473 4.58525 8.73395 4.3949C8.84317 4.20455 8.87289 3.97881 8.81667 3.76668L8.425 2.30001C8.39962 2.19109 8.35258 2.08839 8.28668 1.99803C8.22077 1.90767 8.13735 1.8315 8.04139 1.77406C7.94543 1.71662 7.83889 1.67909 7.72811 1.66369C7.61734 1.6483 7.5046 1.65536 7.39661 1.68446C7.28862 1.71355 7.18759 1.76409 7.09955 1.83305C7.0115 1.90201 6.93824 1.98799 6.88412 2.08587C6.83 2.18374 6.79614 2.29151 6.78455 2.40275C6.77296 2.51398 6.78389 2.62642 6.81667 2.73334L7.18333 4.16668ZM11.2083 12.5C11.1305 12.4181 11.0368 12.3528 10.9329 12.3082C10.829 12.2636 10.7172 12.2406 10.6042 12.2406C10.4911 12.2406 10.3793 12.2636 10.2754 12.3082C10.1716 12.3528 10.0778 12.4181 10 12.5L7.08333 15.4667C6.7404 15.7957 6.28357 15.9794 5.80833 15.9794C5.3331 15.9794 4.87626 15.7957 4.53333 15.4667C4.36452 15.3 4.23048 15.1015 4.139 14.8826C4.04752 14.6638 4.00041 14.4289 4.00041 14.1917C4.00041 13.9545 4.04752 13.7196 4.139 13.5007C4.23048 13.2819 4.36452 13.0833 4.53333 12.9167L7.5 10C7.58723 9.9253 7.65808 9.83337 7.7081 9.72998C7.75812 9.6266 7.78623 9.51399 7.79066 9.39922C7.7951 9.28446 7.77576 9.17001 7.73386 9.06307C7.69197 8.95614 7.62842 8.85901 7.54721 8.7778C7.466 8.69659 7.36887 8.63304 7.26193 8.59115C7.155 8.54925 7.04055 8.52991 6.92579 8.53434C6.81102 8.53878 6.69841 8.56688 6.59502 8.6169C6.49164 8.66692 6.3997 8.73777 6.325 8.82501L3.33333 11.7333C3.0094 12.0573 2.75245 12.4418 2.57714 12.8651C2.40184 13.2883 2.31161 13.7419 2.31161 14.2C2.31161 14.6581 2.40184 15.1117 2.57714 15.535C2.75245 15.9582 3.0094 16.3427 3.33333 16.6667C3.65726 16.9906 4.04182 17.2476 4.46505 17.4229C4.88828 17.5982 5.3419 17.6884 5.8 17.6884C6.2581 17.6884 6.71172 17.5982 7.13495 17.4229C7.55818 17.2476 7.94274 16.9906 8.26667 16.6667L11.2083 13.725C11.2929 13.647 11.3604 13.5523 11.4066 13.4468C11.4528 13.3414 11.4766 13.2276 11.4766 13.1125C11.4766 12.9974 11.4528 12.8836 11.4066 12.7782C11.3604 12.6728 11.2929 12.578 11.2083 12.5ZM4.31667 5.49168C4.47188 5.64563 4.68138 5.73242 4.9 5.73334C5.00967 5.73398 5.11839 5.71296 5.21992 5.67149C5.32145 5.63002 5.4138 5.56891 5.49167 5.49168C5.64687 5.33554 5.73399 5.12433 5.73399 4.90418C5.73399 4.68402 5.64687 4.47281 5.49167 4.31668L4.41667 3.24168C4.25725 3.10515 4.05218 3.03382 3.84245 3.04192C3.63272 3.05002 3.43377 3.13696 3.28536 3.28537C3.13695 3.43379 3.05001 3.63274 3.04191 3.84247C3.03381 4.0522 3.10514 4.25726 3.24167 4.41668L4.31667 5.49168ZM17.7167 11.6L16.25 11.2083C16.1413 11.1708 16.026 11.1561 15.9114 11.1653C15.7968 11.1744 15.6853 11.2072 15.5839 11.2616C15.4826 11.3159 15.3936 11.3906 15.3225 11.4811C15.2515 11.5715 15.1999 11.6756 15.1711 11.787C15.1422 11.8983 15.1367 12.0144 15.1549 12.1279C15.1732 12.2415 15.2147 12.35 15.2769 12.4467C15.3391 12.5435 15.4206 12.6263 15.5164 12.6899C15.6122 12.7536 15.7201 12.7967 15.8333 12.8167L17.3 13.2083H17.5167C17.7377 13.2371 17.9611 13.1768 18.1377 13.0409C18.3142 12.9049 18.4296 12.7044 18.4583 12.4833C18.4871 12.2623 18.4268 12.039 18.2909 11.8624C18.1549 11.6858 17.9543 11.5704 17.7333 11.5417L17.7167 11.6ZM12.8167 15.8333C12.7877 15.7277 12.7383 15.6288 12.6711 15.5423C12.6039 15.4558 12.5203 15.3834 12.4251 15.3292C12.3299 15.275 12.225 15.2401 12.1163 15.2265C12.0076 15.2129 11.8973 15.2209 11.7917 15.25C11.5802 15.3085 11.4003 15.4481 11.291 15.6385C11.1818 15.8288 11.1521 16.0545 11.2083 16.2667L11.6 17.7333C11.6488 17.9151 11.7578 18.0751 11.9091 18.187C12.0604 18.299 12.2452 18.3565 12.4333 18.35C12.5053 18.3582 12.578 18.3582 12.65 18.35C12.7564 18.322 12.8562 18.2731 12.9436 18.2063C13.0311 18.1395 13.1044 18.0561 13.1594 17.9608C13.2144 17.8655 13.25 17.7602 13.2641 17.6511C13.2782 17.542 13.2706 17.4312 13.2417 17.325L12.8167 15.8333ZM15.6833 14.525C15.5239 14.3885 15.3189 14.3171 15.1091 14.3252C14.8994 14.3334 14.7004 14.4203 14.552 14.5687C14.4036 14.7171 14.3167 14.9161 14.3086 15.1258C14.3005 15.3355 14.3718 15.5406 14.5083 15.7L15.5833 16.775C15.7395 16.9302 15.9507 17.0173 16.1708 17.0173C16.391 17.0173 16.6022 16.9302 16.7583 16.775C16.9135 16.6189 17.0007 16.4077 17.0007 16.1875C17.0007 15.9674 16.9135 15.7561 16.7583 15.6L15.6833 14.525ZM17.6667 5.83334C17.6796 5.14037 17.4845 4.45943 17.1067 3.87843C16.7288 3.29742 16.1854 2.84303 15.5467 2.57391C14.908 2.30479 14.2032 2.2333 13.5235 2.36867C12.8438 2.50405 12.2202 2.84006 11.7333 3.33334L8.79167 6.30001C8.71287 6.37935 8.65048 6.47343 8.60805 6.57689C8.56561 6.68034 8.54397 6.79114 8.54436 6.90296C8.54474 7.01477 8.56715 7.12542 8.6103 7.22858C8.65345 7.33173 8.71649 7.42538 8.79583 7.50418C8.87517 7.58297 8.96925 7.64536 9.07271 7.6878C9.17616 7.73023 9.28696 7.75187 9.39878 7.75148C9.5106 7.7511 9.62124 7.72869 9.7244 7.68554C9.82756 7.64239 9.92121 7.57935 10 7.50001L12.9167 4.53334C13.2596 4.20434 13.7164 4.02063 14.1917 4.02063C14.6669 4.02063 15.1237 4.20434 15.4667 4.53334C15.6355 4.7 15.7695 4.89853 15.861 5.1174C15.9525 5.33627 15.9996 5.57112 15.9996 5.80834C15.9996 6.04556 15.9525 6.28042 15.861 6.49929C15.7695 6.71816 15.6355 6.91668 15.4667 7.08334L12.5 10C12.3448 10.1561 12.2577 10.3674 12.2577 10.5875C12.2577 10.8077 12.3448 11.0189 12.5 11.175C12.6561 11.3302 12.8673 11.4173 13.0875 11.4173C13.3077 11.4173 13.5189 11.3302 13.675 11.175L16.6667 8.26668C17.3045 7.61697 17.6633 6.74381 17.6667 5.83334Z" fill="white"/>
</svg>
