<svg width="20" height="20" viewBox="0 0 20 20" fill="none" xmlns="http://www.w3.org/2000/svg">
<path d="M12.7417 13.575L10.8333 15.4917V5.83332C10.8333 5.61231 10.7455 5.40035 10.5893 5.24407C10.433 5.08779 10.221 4.99999 9.99999 4.99999C9.77898 4.99999 9.56702 5.08779 9.41074 5.24407C9.25446 5.40035 9.16666 5.61231 9.16666 5.83332V15.4917L7.25833 13.575C7.10141 13.4181 6.88858 13.3299 6.66666 13.3299C6.44474 13.3299 6.23191 13.4181 6.07499 13.575C5.91808 13.7319 5.82992 13.9447 5.82992 14.1667C5.82992 14.3886 5.91808 14.6014 6.07499 14.7583L9.40833 18.0917C9.48758 18.1675 9.58104 18.227 9.68333 18.2667C9.78308 18.3107 9.89094 18.3335 9.99999 18.3335C10.1091 18.3335 10.2169 18.3107 10.3167 18.2667C10.419 18.227 10.5124 18.1675 10.5917 18.0917L13.925 14.7583C14.0819 14.6014 14.1701 14.3886 14.1701 14.1667C14.1701 13.9447 14.0819 13.7319 13.925 13.575C13.8473 13.4973 13.7551 13.4357 13.6535 13.3936C13.552 13.3516 13.4432 13.3299 13.3333 13.3299C13.1114 13.3299 12.8986 13.4181 12.7417 13.575V13.575ZM15.8333 1.66666H4.16666C3.94565 1.66666 3.73369 1.75445 3.57741 1.91073C3.42113 2.06701 3.33333 2.27898 3.33333 2.49999C3.33333 2.721 3.42113 2.93297 3.57741 3.08925C3.73369 3.24553 3.94565 3.33332 4.16666 3.33332H15.8333C16.0543 3.33332 16.2663 3.24553 16.4226 3.08925C16.5789 2.93297 16.6667 2.721 16.6667 2.49999C16.6667 2.27898 16.5789 2.06701 16.4226 1.91073C16.2663 1.75445 16.0543 1.66666 15.8333 1.66666V1.66666Z" fill="white"/>
</svg>
