<svg width="20" height="20" viewBox="0 0 20 20" fill="none" xmlns="http://www.w3.org/2000/svg">
<path d="M10 1.8725C8.02119 1.87245 6.10694 2.57657 4.5998 3.85884C3.09266 5.1411 2.091 6.91784 1.77406 8.8711C1.45712 10.8244 1.84559 12.8267 2.86995 14.5197C3.89431 16.2127 5.4877 17.486 7.365 18.1117C7.78166 18.185 7.9375 17.935 7.9375 17.7158C7.9375 17.5183 7.9275 16.8617 7.9275 16.1642C5.83333 16.5492 5.29166 15.6533 5.125 15.185C4.94011 14.729 4.64694 14.3248 4.27083 14.0075C3.97916 13.8517 3.5625 13.4658 4.26 13.4558C4.52656 13.4847 4.78224 13.5774 5.00536 13.7261C5.22847 13.8748 5.41244 14.0751 5.54166 14.31C5.6556 14.5147 5.80883 14.695 5.99255 14.8404C6.17627 14.9858 6.38688 15.0935 6.61231 15.1574C6.83774 15.2212 7.07356 15.24 7.30625 15.2126C7.53894 15.1851 7.76393 15.112 7.96833 14.9975C8.00442 14.5736 8.19338 14.1774 8.5 13.8825C6.64583 13.6742 4.70833 12.9558 4.70833 9.76833C4.69652 8.93998 5.00214 8.13851 5.5625 7.52833C5.30775 6.80851 5.33756 6.01857 5.64583 5.32C5.64583 5.32 6.34333 5.10166 7.9375 6.17416C9.30107 5.79912 10.7406 5.79912 12.1042 6.17416C13.6975 5.09083 14.3958 5.32 14.3958 5.32C14.7042 6.01855 14.734 6.80852 14.4792 7.52833C15.0412 8.13746 15.3471 8.93963 15.3333 9.76833C15.3333 12.9658 13.385 13.6742 11.5308 13.8825C11.7297 14.0841 11.8829 14.3261 11.9799 14.5921C12.077 14.8581 12.1157 15.1419 12.0933 15.4242C12.0933 16.5392 12.0833 17.435 12.0833 17.7158C12.0833 17.935 12.2392 18.195 12.6558 18.1117C14.5297 17.4808 16.1183 16.2045 17.1382 14.5106C18.1581 12.8168 18.5428 10.8156 18.2236 8.86432C17.9045 6.91305 16.9023 5.13869 15.396 3.85798C13.8897 2.57727 11.9772 1.87357 10 1.8725Z" fill="white"/>
</svg>
