<svg width="20" height="20" viewBox="0 0 20 20" fill="none" xmlns="http://www.w3.org/2000/svg">
<path d="M10 1.66666C7.86366 1.67275 5.81125 2.49908 4.26667 3.97499V2.49999C4.26667 2.27898 4.17887 2.06701 4.02259 1.91073C3.86631 1.75445 3.65435 1.66666 3.43334 1.66666C3.21232 1.66666 3.00036 1.75445 2.84408 1.91073C2.6878 2.06701 2.60001 2.27898 2.60001 2.49999V6.24999C2.60001 6.471 2.6878 6.68297 2.84408 6.83925C3.00036 6.99553 3.21232 7.08332 3.43334 7.08332H7.18334C7.40435 7.08332 7.61631 6.99553 7.77259 6.83925C7.92887 6.68297 8.01667 6.471 8.01667 6.24999C8.01667 6.02898 7.92887 5.81701 7.77259 5.66073C7.61631 5.50445 7.40435 5.41666 7.18334 5.41666H5.18334C6.25482 4.29696 7.68293 3.58554 9.22212 3.40471C10.7613 3.22389 12.3154 3.58497 13.6172 4.42586C14.919 5.26675 15.8872 6.53492 16.3553 8.01232C16.8234 9.48971 16.7621 11.084 16.182 12.5212C15.6019 13.9583 14.5393 15.1484 13.1768 15.8869C11.8143 16.6254 10.2371 16.8662 8.7163 16.5678C7.19553 16.2694 5.82623 15.4504 4.84383 14.2518C3.86144 13.0532 3.32733 11.5498 3.33334 9.99999C3.33334 9.77898 3.24554 9.56702 3.08926 9.41073C2.93298 9.25445 2.72102 9.16666 2.50001 9.16666C2.27899 9.16666 2.06703 9.25445 1.91075 9.41073C1.75447 9.56702 1.66667 9.77898 1.66667 9.99999C1.66667 11.6482 2.15541 13.2593 3.07109 14.6297C3.98677 16.0002 5.28826 17.0683 6.81098 17.699C8.33369 18.3297 10.0092 18.4947 11.6258 18.1732C13.2423 17.8517 14.7271 17.058 15.8926 15.8925C17.058 14.7271 17.8517 13.2423 18.1732 11.6257C18.4948 10.0092 18.3297 8.33368 17.699 6.81096C17.0683 5.28824 16.0002 3.98675 14.6298 3.07108C13.2593 2.1554 11.6482 1.66666 10 1.66666ZM10 6.66666C9.77899 6.66666 9.56703 6.75445 9.41075 6.91073C9.25447 7.06701 9.16667 7.27898 9.16667 7.49999V9.99999C9.16667 10.221 9.25447 10.433 9.41075 10.5892C9.56703 10.7455 9.77899 10.8333 10 10.8333H11.6667C11.8877 10.8333 12.0996 10.7455 12.2559 10.5892C12.4122 10.433 12.5 10.221 12.5 9.99999C12.5 9.77898 12.4122 9.56702 12.2559 9.41073C12.0996 9.25445 11.8877 9.16666 11.6667 9.16666H10.8333V7.49999C10.8333 7.27898 10.7455 7.06701 10.5893 6.91073C10.433 6.75445 10.221 6.66666 10 6.66666Z" fill="white"/>
</svg>
