<svg width="20" height="20" viewBox="0 0 20 20" fill="none" xmlns="http://www.w3.org/2000/svg">
<path d="M3.09167 13.575C3.01241 13.4991 2.91896 13.4397 2.81667 13.4C2.61378 13.3167 2.38622 13.3167 2.18333 13.4C2.08104 13.4397 1.98759 13.4991 1.90833 13.575C1.83247 13.6543 1.773 13.7477 1.73333 13.85C1.66952 14.0018 1.65208 14.169 1.68323 14.3307C1.71437 14.4923 1.7927 14.6411 1.90833 14.7583C1.98933 14.8319 2.08235 14.8911 2.18333 14.9333C2.28308 14.9774 2.39094 15.0002 2.5 15.0002C2.60906 15.0002 2.71692 14.9774 2.81667 14.9333C2.91765 14.8911 3.01067 14.8319 3.09167 14.7583C3.2073 14.6411 3.28563 14.4923 3.31677 14.3307C3.34792 14.169 3.33048 14.0018 3.26667 13.85C3.22701 13.7477 3.16753 13.6543 3.09167 13.575ZM5.83333 6.66667H17.5C17.721 6.66667 17.933 6.57887 18.0893 6.42259C18.2455 6.26631 18.3333 6.05435 18.3333 5.83333C18.3333 5.61232 18.2455 5.40036 18.0893 5.24408C17.933 5.0878 17.721 5 17.5 5H5.83333C5.61232 5 5.40036 5.0878 5.24408 5.24408C5.0878 5.40036 5 5.61232 5 5.83333C5 6.05435 5.0878 6.26631 5.24408 6.42259C5.40036 6.57887 5.61232 6.66667 5.83333 6.66667ZM3.09167 9.40833C2.97448 9.2927 2.82567 9.21437 2.66401 9.18323C2.50235 9.15208 2.33509 9.16952 2.18333 9.23333C2.08235 9.27553 1.98933 9.33472 1.90833 9.40833C1.83247 9.48759 1.773 9.58104 1.73333 9.68333C1.68925 9.78308 1.66647 9.89094 1.66647 10C1.66647 10.1091 1.68925 10.2169 1.73333 10.3167C1.77554 10.4177 1.83472 10.5107 1.90833 10.5917C1.98933 10.6653 2.08235 10.7245 2.18333 10.7667C2.28308 10.8108 2.39094 10.8335 2.5 10.8335C2.60906 10.8335 2.71692 10.8108 2.81667 10.7667C2.91765 10.7245 3.01067 10.6653 3.09167 10.5917C3.16528 10.5107 3.22447 10.4177 3.26667 10.3167C3.31075 10.2169 3.33353 10.1091 3.33353 10C3.33353 9.89094 3.31075 9.78308 3.26667 9.68333C3.22701 9.58104 3.16753 9.48759 3.09167 9.40833ZM17.5 9.16667H5.83333C5.61232 9.16667 5.40036 9.25446 5.24408 9.41074C5.0878 9.56702 5 9.77899 5 10C5 10.221 5.0878 10.433 5.24408 10.5893C5.40036 10.7455 5.61232 10.8333 5.83333 10.8333H17.5C17.721 10.8333 17.933 10.7455 18.0893 10.5893C18.2455 10.433 18.3333 10.221 18.3333 10C18.3333 9.77899 18.2455 9.56702 18.0893 9.41074C17.933 9.25446 17.721 9.16667 17.5 9.16667ZM3.09167 5.24167C3.01241 5.1658 2.91896 5.10633 2.81667 5.06667C2.66491 5.00285 2.49765 4.98542 2.33599 5.01656C2.17433 5.04771 2.02552 5.12604 1.90833 5.24167C1.83472 5.32267 1.77554 5.41568 1.73333 5.51667C1.68925 5.61642 1.66647 5.72427 1.66647 5.83333C1.66647 5.94239 1.68925 6.05025 1.73333 6.15C1.77554 6.25099 1.83472 6.344 1.90833 6.425C1.98933 6.49861 2.08235 6.5578 2.18333 6.6C2.33509 6.66382 2.50235 6.68125 2.66401 6.65011C2.82567 6.61896 2.97448 6.54063 3.09167 6.425C3.16528 6.344 3.22447 6.25099 3.26667 6.15C3.31075 6.05025 3.33353 5.94239 3.33353 5.83333C3.33353 5.72427 3.31075 5.61642 3.26667 5.51667C3.22447 5.41568 3.16528 5.32267 3.09167 5.24167ZM17.5 13.3333H5.83333C5.61232 13.3333 5.40036 13.4211 5.24408 13.5774C5.0878 13.7337 5 13.9457 5 14.1667C5 14.3877 5.0878 14.5996 5.24408 14.7559C5.40036 14.9122 5.61232 15 5.83333 15H17.5C17.721 15 17.933 14.9122 18.0893 14.7559C18.2455 14.5996 18.3333 14.3877 18.3333 14.1667C18.3333 13.9457 18.2455 13.7337 18.0893 13.5774C17.933 13.4211 17.721 13.3333 17.5 13.3333Z" fill="white"/>
</svg>
