<svg width="128" height="128" viewBox="0 0 128 128" fill="none" xmlns="http://www.w3.org/2000/svg">
<path d="M51.5736 59.4543H41.0721C39.981 59.4543 39.1854 59.2062 38.6854 58.7099C38.1853 58.2137 37.9352 57.4241 37.9352 56.3414V48.1529H27.0928C22.4103 48.1529 19.0462 46.8446 17.0004 44.2279C15.0001 41.6112 14 38.2727 14 34.2123V12.4893C14 11.9028 14.0682 11.4065 14.2046 11.0005C14.3864 10.5945 14.6365 10.2561 14.9547 9.98541L23.7514 2.60906C23.9787 2.4286 24.2742 2.29325 24.6379 2.20302C25.047 2.06767 25.4789 2 25.9335 2H36.5032C37.5943 2 38.3899 2.24813 38.8899 2.7444C39.39 3.24067 39.64 4.03019 39.64 5.11296V9.37635L47.6866 2.60906C47.9139 2.4286 48.2094 2.29325 48.5731 2.20302C48.9823 2.06767 49.4142 2 49.8688 2H60.3703C61.4613 2 62.2569 2.24813 62.757 2.7444C63.257 3.24067 63.5071 4.03019 63.5071 5.11296V48.965C63.5071 49.5515 63.4162 50.0478 63.2343 50.4538C63.0979 50.8599 62.8706 51.1982 62.5524 51.4689L53.6875 58.7776C53.5057 58.9581 53.2102 59.116 52.801 59.2513C52.4373 59.3867 52.0282 59.4543 51.5736 59.4543ZM47.4139 40.0999V48.965C47.4139 49.8222 47.5957 50.4538 47.9594 50.8599C48.3685 51.2208 49.005 51.4012 49.8688 51.4012H60.3703C61.234 51.4012 61.8478 51.2208 62.2114 50.8599C62.6206 50.4538 62.8252 49.8222 62.8252 48.965V5.11296C62.8252 4.25577 62.6206 3.64671 62.2114 3.28579C61.8478 2.87975 61.234 2.67673 60.3703 2.67673H49.8688C49.005 2.67673 48.3685 2.87975 47.9594 3.28579C47.5957 3.64671 47.4139 4.25577 47.4139 5.11296V25.9562H41.0721C40.4356 25.9562 39.9128 25.7532 39.5036 25.3472C39.14 24.9411 38.9581 24.3772 38.9581 23.6553V5.11296C38.9581 4.25577 38.7535 3.64671 38.3444 3.28579C37.9807 2.87975 37.367 2.67673 36.5032 2.67673H25.9335C25.0698 2.67673 24.4333 2.87975 24.0242 3.28579C23.6605 3.64671 23.4786 4.25577 23.4786 5.11296V28.8662C23.4786 32.701 24.4333 35.5432 26.3427 37.3929C28.2975 39.1976 31.4798 40.0999 35.8895 40.0999H47.4139Z" fill="url(#paint0_linear_405_1062)"/>
<path d="M103.167 59.4543H70.7077C69.6166 59.4543 68.8211 59.2062 68.321 58.7099C67.8209 58.2137 67.5709 57.4241 67.5709 56.3414V44.7016C67.5709 41.4533 67.9573 38.8818 68.7301 36.9869C69.503 35.0921 70.5713 33.5807 71.9351 32.4528L80.7318 25.0765C81.0955 24.7607 81.482 24.49 81.8911 24.2644C82.3003 23.9937 82.7321 23.7456 83.1867 23.52H73.299C72.2079 23.52 71.4123 23.2719 70.9123 22.7756C70.4122 22.2793 70.1622 21.4898 70.1622 20.407V12.4893C70.1622 11.9028 70.2303 11.4065 70.3667 11.0005C70.5486 10.5945 70.7986 10.2561 71.1168 9.98541L79.9136 2.60906C80.1409 2.4286 80.4364 2.29325 80.8 2.20302C81.2092 2.06767 81.6411 2 82.0957 2H102.212C106.304 2 109.44 3.03765 111.623 5.11296C113.805 7.14314 114.896 10.0756 114.896 13.9104V20.2717C114.896 22.347 114.555 24.1291 113.873 25.6179C113.191 27.1067 112.214 28.3699 110.941 29.4075L102.144 36.7162C101.871 36.8967 101.576 37.0997 101.258 37.3253C100.985 37.5509 100.689 37.7539 100.371 37.9343H111.964C113.055 37.9343 113.85 38.1825 114.35 38.6787C114.85 39.175 115.1 39.9645 115.1 41.0473V48.965C115.1 49.5515 115.009 50.0478 114.828 50.4538C114.691 50.8599 114.464 51.1982 114.146 51.4689L105.281 58.7776C105.099 58.9581 104.803 59.116 104.394 59.2513C104.031 59.3867 103.621 59.4543 103.167 59.4543ZM111.964 51.4012C112.827 51.4012 113.441 51.2208 113.805 50.8599C114.214 50.4538 114.418 49.8222 114.418 48.965V41.0473C114.418 40.1901 114.214 39.581 113.805 39.2201C113.441 38.8141 112.827 38.6111 111.964 38.6111H92.529V37.1899C92.529 36.4681 92.6426 35.9944 92.8699 35.7688C93.1427 35.5432 93.6201 35.3402 94.302 35.1597L103.576 32.2498C106.849 31.2573 109.441 29.8587 111.35 28.0541C113.259 26.2495 114.214 23.6553 114.214 20.2717V13.9104C114.214 10.2561 113.168 7.48151 111.077 5.58666C109.031 3.64671 106.076 2.67673 102.212 2.67673H82.0957C81.2319 2.67673 80.5955 2.87975 80.1863 3.28579C79.8226 3.64671 79.6408 4.25577 79.6408 5.11296V13.0307C79.6408 13.8879 79.8226 14.5195 80.1863 14.9255C80.5955 15.2865 81.2319 15.4669 82.0957 15.4669H96.8932C97.5752 15.4669 98.0525 15.6023 98.3253 15.873C98.598 16.0985 98.7344 16.5497 98.7344 17.2264C98.7344 17.9483 98.598 18.4896 98.3253 18.8506C98.098 19.2115 97.6206 19.4822 96.8932 19.6626L87.7556 22.5049C86.2099 22.9561 84.7779 23.4974 83.4595 24.1291C82.1411 24.7607 81.0046 25.6179 80.0499 26.7006C79.0952 27.7834 78.3451 29.182 77.7996 30.8963C77.2995 32.5656 77.0495 34.7086 77.0495 37.3253V48.965C77.0495 49.8222 77.2313 50.4538 77.595 50.8599C78.0042 51.2208 78.6406 51.4012 79.5044 51.4012H111.964Z" fill="url(#paint1_linear_405_1062)"/>
<path d="M28.1157 126H17.546C16.4549 126 15.6593 125.752 15.1593 125.256C14.6592 124.759 14.4091 123.97 14.4091 122.887V79.035C14.4091 78.4485 14.4773 77.9522 14.6137 77.5462C14.7956 77.1401 15.0456 76.8018 15.3638 76.5311L24.1605 69.1547C24.3878 68.9743 24.6833 68.8389 25.047 68.7487C25.4562 68.6133 25.8881 68.5457 26.3427 68.5457H56.7561C57.8472 68.5457 58.6428 68.7938 59.1428 69.2901C59.6429 69.7863 59.8929 70.5759 59.8929 71.6586V79.7117C59.8929 80.2982 59.802 80.7945 59.6202 81.2005C59.4838 81.6065 59.2565 81.9449 58.9382 82.2156L51.3008 88.5092C52.3464 88.5092 53.1192 88.7573 53.6193 89.2536C54.1194 89.7499 54.3694 90.5394 54.3694 91.6221V99.7429C54.3694 100.329 54.2785 100.826 54.0966 101.232C53.9603 101.638 53.733 101.976 53.4147 102.247L44.5498 109.555C44.368 109.736 44.0725 109.894 43.6633 110.029C43.2996 110.165 42.8905 110.232 42.4359 110.232H40.0492V115.511C40.0492 116.097 39.9583 116.593 39.7764 117C39.64 117.406 39.4127 117.744 39.0945 118.015L30.2296 125.323C30.0478 125.504 29.7523 125.662 29.3431 125.797C28.9794 125.932 28.5703 126 28.1157 126ZM36.9124 117.947C37.7761 117.947 38.3899 117.766 38.7535 117.406C39.1627 116.999 39.3673 116.368 39.3673 115.511V102.179H51.2326C52.0964 102.179 52.7101 101.999 53.0738 101.638C53.4829 101.232 53.6875 100.6 53.6875 99.7429V91.6221C53.6875 90.7649 53.4829 90.1559 53.0738 89.795C52.7101 89.3889 52.0964 89.1859 51.2326 89.1859H39.3673V82.1479H56.7561C57.6199 82.1479 58.2336 81.9675 58.5973 81.6066C59.0064 81.2005 59.211 80.5689 59.211 79.7117V71.6586C59.211 70.8014 59.0064 70.1924 58.5973 69.8315C58.2336 69.4254 57.6199 69.2224 56.7561 69.2224H26.3427C25.4789 69.2224 24.8425 69.4254 24.4333 69.8315C24.0696 70.1924 23.8878 70.8014 23.8878 71.6586V115.511C23.8878 116.368 24.0696 116.999 24.4333 117.406C24.8425 117.766 25.4789 117.947 26.3427 117.947H36.9124Z" fill="url(#paint2_linear_405_1062)"/>
<path d="M85.4493 117.947C86.3131 117.947 86.9268 117.766 87.2905 117.406C87.6996 116.999 87.9042 116.368 87.9042 115.511V91.6898L91.9275 99.0662C92.3367 99.8331 92.814 100.397 93.3595 100.758C93.9505 101.074 94.6779 101.232 95.5417 101.232H98.2693C99.1331 101.232 99.8377 101.074 100.383 100.758C100.974 100.397 101.474 99.8331 101.883 99.0662L105.907 91.6898V115.511C105.907 116.368 106.089 116.999 106.452 117.406C106.861 117.766 107.498 117.947 108.362 117.947H118.863C119.727 117.947 120.341 117.766 120.704 117.406C121.114 116.999 121.318 116.368 121.318 115.511V71.6586C121.318 70.8014 121.114 70.1924 120.704 69.8315C120.341 69.4254 119.727 69.2224 118.863 69.2224H107.816C107.089 69.2224 106.475 69.3803 105.975 69.6961C105.52 70.0119 105.088 70.5307 104.679 71.2526L98.6103 82.2833C98.383 82.6893 98.1784 82.9826 97.9966 83.163C97.8602 83.3435 97.6556 83.4337 97.3829 83.4337H96.7691C96.4964 83.4337 96.2691 83.3435 96.0872 83.163C95.9508 82.9826 95.769 82.6893 95.5417 82.2833L89.4044 71.2526C88.9953 70.5307 88.5407 70.0119 88.0406 69.6961C87.586 69.3803 86.995 69.2224 86.2676 69.2224H75.2888C74.425 69.2224 73.7886 69.4254 73.3794 69.8315C73.0157 70.1924 72.8339 70.8014 72.8339 71.6586V115.511C72.8339 116.368 73.0157 116.999 73.3794 117.406C73.7886 117.766 74.425 117.947 75.2888 117.947H85.4493ZM87.6314 118.015L78.7665 125.323C78.5847 125.504 78.2892 125.662 77.8801 125.797C77.5164 125.932 77.1072 126 76.6526 126H66.4921C65.401 126 64.6054 125.752 64.1054 125.256C63.6053 124.759 63.3552 123.97 63.3552 122.887V79.035C63.3552 78.4485 63.4234 77.9522 63.5598 77.5462C63.7417 77.1401 63.9917 76.8018 64.3099 76.5311L73.1066 69.1547C73.3339 68.9743 73.6294 68.8389 73.9931 68.7487C74.4023 68.6133 74.8342 68.5457 75.2888 68.5457H86.2676C87.1314 68.5457 87.836 68.7261 88.3816 69.0871C88.9726 69.448 89.5181 70.057 90.0182 70.9142L94.6552 79.3733L95.2689 78.2906C95.4507 77.9748 95.6326 77.6815 95.8144 77.4108C96.0417 77.095 96.269 76.8469 96.4964 76.6664L105.293 69.3577C105.657 69.0871 106.02 68.884 106.384 68.7487C106.793 68.6133 107.271 68.5457 107.816 68.5457H118.863C119.954 68.5457 120.75 68.7938 121.25 69.2901C121.75 69.7863 122 70.5759 122 71.6586V115.511C122 116.097 121.909 116.593 121.727 117C121.591 117.406 121.364 117.744 121.045 118.015L112.18 125.323C111.999 125.504 111.703 125.662 111.294 125.797C110.93 125.932 110.521 126 110.066 126H99.565C98.4284 126 97.6101 125.752 97.1101 125.256C96.6555 124.759 96.4282 123.97 96.4282 122.887V105.021L92.4049 108.337C92.0412 108.653 91.6093 108.901 91.1092 109.082C90.6546 109.217 90.1091 109.285 89.4726 109.285H88.5861V115.511C88.5861 116.097 88.4952 116.593 88.3134 117C88.177 117.406 87.9497 117.744 87.6314 118.015Z" fill="url(#paint3_linear_405_1062)"/>
<path d="M47.4139 40.0999V48.965C47.4139 49.8222 47.5957 50.4538 47.9594 50.8599C48.3685 51.2208 49.005 51.4012 49.8688 51.4012H60.3703C61.234 51.4012 61.8478 51.2208 62.2114 50.8599C62.6206 50.4538 62.8252 49.8222 62.8252 48.965V5.11296C62.8252 4.25577 62.6206 3.64671 62.2114 3.28579C61.8478 2.87975 61.234 2.67673 60.3703 2.67673H49.8688C49.005 2.67673 48.3685 2.87975 47.9594 3.28579C47.5957 3.64671 47.4139 4.25577 47.4139 5.11296V25.9562H41.0721C40.4356 25.9562 39.9128 25.7532 39.5036 25.3472C39.14 24.9411 38.9581 24.3772 38.9581 23.6553V5.11296C38.9581 4.25577 38.7535 3.64671 38.3444 3.28579C37.9807 2.87975 37.367 2.67673 36.5032 2.67673H25.9335C25.0698 2.67673 24.4333 2.87975 24.0242 3.28579C23.6605 3.64671 23.4786 4.25577 23.4786 5.11296V28.8662C23.4786 32.701 24.4333 35.5432 26.3427 37.3929C28.2975 39.1976 31.4798 40.0999 35.8895 40.0999H47.4139Z" fill="white"/>
<path d="M111.964 51.4012C112.827 51.4012 113.441 51.2208 113.805 50.8599C114.214 50.4538 114.418 49.8222 114.418 48.965V41.0473C114.418 40.1901 114.214 39.581 113.805 39.2201C113.441 38.8141 112.827 38.6111 111.964 38.6111H92.529V37.1899C92.529 36.4681 92.6426 35.9944 92.8699 35.7688C93.1427 35.5432 93.6201 35.3402 94.302 35.1597L103.576 32.2498C106.849 31.2573 109.441 29.8587 111.35 28.0541C113.259 26.2495 114.214 23.6553 114.214 20.2717V13.9104C114.214 10.2561 113.168 7.48151 111.077 5.58666C109.031 3.64671 106.076 2.67673 102.212 2.67673H82.0957C81.2319 2.67673 80.5955 2.87975 80.1863 3.28579C79.8226 3.64671 79.6408 4.25577 79.6408 5.11296V13.0307C79.6408 13.8879 79.8226 14.5195 80.1863 14.9255C80.5955 15.2865 81.2319 15.4669 82.0957 15.4669H96.8932C97.5752 15.4669 98.0525 15.6023 98.3253 15.873C98.598 16.0985 98.7344 16.5497 98.7344 17.2264C98.7344 17.9483 98.598 18.4896 98.3253 18.8506C98.098 19.2115 97.6206 19.4822 96.8932 19.6626L87.7556 22.5049C86.2099 22.9561 84.7779 23.4974 83.4595 24.1291C82.1411 24.7607 81.0046 25.6179 80.0499 26.7006C79.0952 27.7834 78.3451 29.182 77.7996 30.8963C77.2995 32.5656 77.0495 34.7086 77.0495 37.3253V48.965C77.0495 49.8222 77.2313 50.4538 77.595 50.8599C78.0042 51.2208 78.6406 51.4012 79.5044 51.4012H111.964Z" fill="white"/>
<path d="M85.4493 117.947C86.3131 117.947 86.9268 117.766 87.2905 117.406C87.6996 116.999 87.9042 116.368 87.9042 115.511V91.6898L91.9275 99.0662C92.3367 99.8331 92.814 100.397 93.3595 100.758C93.9505 101.074 94.6779 101.232 95.5417 101.232H98.2693C99.1331 101.232 99.8377 101.074 100.383 100.758C100.974 100.397 101.474 99.8331 101.883 99.0662L105.907 91.6898V115.511C105.907 116.368 106.089 116.999 106.452 117.406C106.861 117.766 107.498 117.947 108.362 117.947H118.863C119.727 117.947 120.341 117.766 120.704 117.406C121.114 116.999 121.318 116.368 121.318 115.511V71.6586C121.318 70.8014 121.114 70.1924 120.704 69.8315C120.341 69.4254 119.727 69.2224 118.863 69.2224H107.816C107.089 69.2224 106.475 69.3803 105.975 69.6961C105.52 70.0119 105.088 70.5307 104.679 71.2526L98.6103 82.2833C98.383 82.6893 98.1784 82.9826 97.9966 83.163C97.8602 83.3435 97.6556 83.4337 97.3829 83.4337H96.7691C96.4964 83.4337 96.2691 83.3435 96.0872 83.163C95.9508 82.9826 95.769 82.6893 95.5417 82.2833L89.4044 71.2526C88.9953 70.5307 88.5407 70.0119 88.0406 69.6961C87.586 69.3803 86.995 69.2224 86.2676 69.2224H75.2888C74.425 69.2224 73.7886 69.4254 73.3794 69.8315C73.0157 70.1924 72.8339 70.8014 72.8339 71.6586V115.511C72.8339 116.368 73.0157 116.999 73.3794 117.406C73.7886 117.766 74.425 117.947 75.2888 117.947H85.4493Z" fill="white"/>
<path d="M36.9124 117.947C37.7761 117.947 38.3899 117.766 38.7535 117.406C39.1627 116.999 39.3673 116.368 39.3673 115.511V102.179H51.2326C52.0964 102.179 52.7101 101.999 53.0738 101.638C53.4829 101.232 53.6875 100.6 53.6875 99.7429V91.6221C53.6875 90.7649 53.4829 90.1559 53.0738 89.795C52.7101 89.3889 52.0964 89.1859 51.2326 89.1859H39.3673V82.1479H56.7561C57.6199 82.1479 58.2336 81.9675 58.5973 81.6066C59.0064 81.2005 59.211 80.5689 59.211 79.7117V71.6586C59.211 70.8014 59.0064 70.1924 58.5973 69.8315C58.2336 69.4254 57.6199 69.2224 56.7561 69.2224H26.3427C25.4789 69.2224 24.8425 69.4254 24.4333 69.8315C24.0696 70.1924 23.8878 70.8014 23.8878 71.6586V115.511C23.8878 116.368 24.0696 116.999 24.4333 117.406C24.8425 117.766 25.4789 117.947 26.3427 117.947H36.9124Z" fill="white"/>
<defs>
<linearGradient id="paint0_linear_405_1062" x1="122" y1="2" x2="-0.826036" y2="108.978" gradientUnits="userSpaceOnUse">
<stop stop-color="#FF00F5"/>
<stop offset="1" stop-color="#FF7A00"/>
</linearGradient>
<linearGradient id="paint1_linear_405_1062" x1="122" y1="2" x2="-0.826036" y2="108.978" gradientUnits="userSpaceOnUse">
<stop stop-color="#FF00F5"/>
<stop offset="1" stop-color="#FF7A00"/>
</linearGradient>
<linearGradient id="paint2_linear_405_1062" x1="122" y1="2" x2="-0.826036" y2="108.978" gradientUnits="userSpaceOnUse">
<stop stop-color="#FF00F5"/>
<stop offset="1" stop-color="#FF7A00"/>
</linearGradient>
<linearGradient id="paint3_linear_405_1062" x1="122" y1="2" x2="-0.826036" y2="108.978" gradientUnits="userSpaceOnUse">
<stop stop-color="#FF00F5"/>
<stop offset="1" stop-color="#FF7A00"/>
</linearGradient>
</defs>
</svg>
