<svg width="20" height="20" viewBox="0 0 20 20" fill="none" xmlns="http://www.w3.org/2000/svg">
<path d="M13.3333 1.66666C12.6703 1.66666 12.0344 1.93005 11.5656 2.39889C11.0967 2.86773 10.8333 3.50362 10.8333 4.16666V15.8333C10.8333 16.4964 11.0967 17.1322 11.5656 17.6011C12.0344 18.0699 12.6703 18.3333 13.3333 18.3333C13.9964 18.3333 14.6323 18.0699 15.1011 17.6011C15.5699 17.1322 15.8333 16.4964 15.8333 15.8333V4.16666C15.8333 3.50362 15.5699 2.86773 15.1011 2.39889C14.6323 1.93005 13.9964 1.66666 13.3333 1.66666ZM14.1667 15.8333C14.1667 16.0543 14.0789 16.2663 13.9226 16.4226C13.7663 16.5789 13.5544 16.6667 13.3333 16.6667C13.1123 16.6667 12.9004 16.5789 12.7441 16.4226C12.5878 16.2663 12.5 16.0543 12.5 15.8333V4.16666C12.5 3.94564 12.5878 3.73368 12.7441 3.5774C12.9004 3.42112 13.1123 3.33332 13.3333 3.33332C13.5544 3.33332 13.7663 3.42112 13.9226 3.5774C14.0789 3.73368 14.1667 3.94564 14.1667 4.16666V15.8333ZM6.66667 1.66666C6.00363 1.66666 5.36775 1.93005 4.8989 2.39889C4.43006 2.86773 4.16667 3.50362 4.16667 4.16666V15.8333C4.16667 16.4964 4.43006 17.1322 4.8989 17.6011C5.36775 18.0699 6.00363 18.3333 6.66667 18.3333C7.32971 18.3333 7.9656 18.0699 8.43444 17.6011C8.90328 17.1322 9.16667 16.4964 9.16667 15.8333V4.16666C9.16667 3.50362 8.90328 2.86773 8.43444 2.39889C7.9656 1.93005 7.32971 1.66666 6.66667 1.66666ZM7.50001 15.8333C7.50001 16.0543 7.41221 16.2663 7.25593 16.4226C7.09965 16.5789 6.88769 16.6667 6.66667 16.6667C6.44566 16.6667 6.2337 16.5789 6.07742 16.4226C5.92114 16.2663 5.83334 16.0543 5.83334 15.8333V4.16666C5.83334 3.94564 5.92114 3.73368 6.07742 3.5774C6.2337 3.42112 6.44566 3.33332 6.66667 3.33332C6.88769 3.33332 7.09965 3.42112 7.25593 3.5774C7.41221 3.73368 7.50001 3.94564 7.50001 4.16666V15.8333Z" fill="white"/>
</svg>
