<svg width="20" height="20" viewBox="0 0 20 20" fill="none" xmlns="http://www.w3.org/2000/svg">
<path d="M17.0308 5.92001C16.8869 5.75892 16.7269 5.61289 16.5533 5.48418C16.6247 4.92595 16.5755 4.35892 16.4092 3.82129C16.2429 3.28366 15.9633 2.78793 15.5892 2.36751C14.6858 1.34918 13.1458 0.833344 11.0117 0.833344H5.83416C5.45992 0.834148 5.09817 0.968047 4.81359 1.2111C4.52901 1.45415 4.34017 1.7905 4.28083 2.16001L2.1225 15.8317C2.09195 16.015 2.10176 16.2027 2.15122 16.3818C2.20069 16.5609 2.28863 16.727 2.4089 16.8687C2.52918 17.0103 2.6789 17.124 2.84763 17.2018C3.01636 17.2796 3.20003 17.3196 3.38583 17.3192H5.60583L5.5375 17.7525C5.50979 17.927 5.52025 18.1055 5.56814 18.2755C5.61603 18.4456 5.70022 18.6033 5.81491 18.7377C5.9296 18.8721 6.07206 18.9801 6.23248 19.0541C6.3929 19.1282 6.56747 19.1666 6.74416 19.1667H9.44C9.78905 19.1693 10.1276 19.0474 10.3949 18.8229C10.6622 18.5984 10.8407 18.2859 10.8983 17.9417L11.4325 14.5825L11.4417 14.5367H11.6908C15.0508 14.5367 17.1492 12.8758 17.7617 9.73501C17.9485 9.08644 17.9797 8.40296 17.8527 7.74007C17.7257 7.07719 17.4441 6.45362 17.0308 5.92001ZM6.535 11.42L5.94 15.1992L5.86833 15.6525H3.83833L5.91416 2.50001H11.0117C12.625 2.50001 13.7767 2.83668 14.3392 3.47001C14.6044 3.77868 14.7894 4.14805 14.8776 4.54535C14.9658 4.94264 14.9546 5.35558 14.845 5.74751L14.83 5.84168C14.82 5.90501 14.8108 5.96668 14.7933 6.04668C14.6325 7.23727 14.0375 8.32646 13.1225 9.10501C12.0953 9.81939 10.8572 10.1667 9.60833 10.0908H8.08916C7.71385 10.0895 7.35053 10.2229 7.0653 10.4669C6.78007 10.7108 6.59189 11.049 6.535 11.42ZM16.1267 9.41584C15.6667 11.7725 14.2575 12.87 11.6908 12.87H11.2875C10.9381 12.8675 10.5992 12.9897 10.3319 13.2147C10.0646 13.4398 9.8863 13.7528 9.82916 14.0975L9.2875 17.4925L7.26416 17.5L7.6625 14.9717L8.1725 11.7608H9.605C9.73583 11.7608 9.85083 11.7417 9.97833 11.7367C10.2775 11.7267 10.5758 11.715 10.8558 11.68C11.0267 11.6592 11.1833 11.62 11.3475 11.59C11.575 11.5483 11.8017 11.5067 12.015 11.4475C12.1733 11.4033 12.3217 11.3458 12.4733 11.2925C12.6717 11.2217 12.8683 11.1475 13.0542 11.06C13.1942 10.9942 13.3275 10.9208 13.4592 10.8458C13.6352 10.7462 13.8057 10.6371 13.97 10.5192C14.0883 10.4342 14.205 10.3458 14.3158 10.2525C14.4731 10.1167 14.6225 9.972 14.7633 9.81918C14.8575 9.71918 14.9533 9.62168 15.0408 9.51334C15.1855 9.32895 15.3191 9.13611 15.4408 8.93584C15.5042 8.83418 15.575 8.74001 15.6342 8.63334C15.8028 8.32424 15.9476 8.00276 16.0675 7.67168C16.075 7.65168 16.085 7.63501 16.0925 7.61501C16.0958 7.60668 16.1008 7.59834 16.1042 7.58834C16.2693 8.18539 16.2767 8.81505 16.1258 9.41584H16.1267Z" fill="white"/>
</svg>
