<svg width="20" height="20" viewBox="0 0 20 20" fill="none" xmlns="http://www.w3.org/2000/svg">
<path d="M15.45 7.5L7.4 2.88333C6.9644 2.6318 6.46999 2.50003 5.96699 2.50141C5.46399 2.5028 4.97031 2.63728 4.5361 2.8912C4.10189 3.14512 3.74262 3.50944 3.49478 3.94715C3.24694 4.38486 3.11936 4.88036 3.125 5.38333V14.65C3.125 15.4059 3.42526 16.1308 3.95974 16.6653C4.49422 17.1997 5.21913 17.5 5.975 17.5C6.47536 17.4992 6.96674 17.367 7.4 17.1167L15.45 12.5C15.8825 12.2497 16.2417 11.89 16.4913 11.457C16.741 11.0241 16.8724 10.5331 16.8724 10.0333C16.8724 9.53356 16.741 9.04258 16.4913 8.60964C16.2417 8.17669 15.8825 7.81701 15.45 7.56667V7.5ZM14.6167 10.9917L6.56666 15.675C6.38623 15.7773 6.18239 15.831 5.975 15.831C5.76761 15.831 5.56376 15.7773 5.38333 15.675C5.20341 15.5711 5.05401 15.4217 4.95015 15.2418C4.84629 15.0619 4.79163 14.8578 4.79166 14.65V5.35C4.79163 5.14225 4.84629 4.93815 4.95015 4.75822C5.05401 4.57829 5.20341 4.42888 5.38333 4.325C5.5645 4.2243 5.76774 4.16991 5.975 4.16667C6.18211 4.17092 6.38511 4.22524 6.56666 4.325L14.6167 8.975C14.7966 9.07883 14.9461 9.22823 15.05 9.40816C15.154 9.58809 15.2087 9.79221 15.2087 10C15.2087 10.2078 15.154 10.4119 15.05 10.5918C14.9461 10.7718 14.7966 10.9212 14.6167 11.025V10.9917Z" fill="white"/>
</svg>
