<svg width="20" height="20" viewBox="0 0 20 20" fill="none" xmlns="http://www.w3.org/2000/svg">
<path d="M16.5917 12.925H12.8167C12.5957 12.925 12.3837 13.0128 12.2274 13.1691C12.0711 13.3253 11.9833 13.5373 11.9833 13.7583C11.9833 13.9793 12.0711 14.1913 12.2274 14.3476C12.3837 14.5039 12.5957 14.5917 12.8167 14.5917H14.8167C13.8975 15.5523 12.712 16.2161 11.4126 16.4978C10.1133 16.7795 8.75934 16.6663 7.52482 16.1727C6.29029 15.6791 5.23156 14.8276 4.48466 13.7276C3.73776 12.6277 3.33681 11.3295 3.33333 9.99999C3.33333 9.77898 3.24554 9.56701 3.08926 9.41073C2.93298 9.25445 2.72101 9.16666 2.5 9.16666C2.27899 9.16666 2.06703 9.25445 1.91075 9.41073C1.75447 9.56701 1.66667 9.77898 1.66667 9.99999C1.67107 11.6273 2.15185 13.2178 3.04967 14.575C3.94749 15.9323 5.22306 16.997 6.71895 17.6377C8.21485 18.2784 9.86561 18.4671 11.4675 18.1805C13.0694 17.8939 14.5524 17.1446 15.7333 16.025V17.5C15.7333 17.721 15.8211 17.933 15.9774 18.0892C16.1337 18.2455 16.3457 18.3333 16.5667 18.3333C16.7877 18.3333 16.9996 18.2455 17.1559 18.0892C17.3122 17.933 17.4 17.721 17.4 17.5V13.75C17.3979 13.5347 17.3126 13.3285 17.1619 13.1747C17.0113 13.0209 16.8069 12.9314 16.5917 12.925ZM10 1.66666C7.86366 1.67275 5.81124 2.49908 4.26667 3.97499V2.49999C4.26667 2.27898 4.17887 2.06701 4.02259 1.91073C3.86631 1.75445 3.65435 1.66666 3.43333 1.66666C3.21232 1.66666 3.00036 1.75445 2.84408 1.91073C2.6878 2.06701 2.6 2.27898 2.6 2.49999V6.24999C2.6 6.471 2.6878 6.68296 2.84408 6.83925C3.00036 6.99553 3.21232 7.08332 3.43333 7.08332H7.18333C7.40435 7.08332 7.61631 6.99553 7.77259 6.83925C7.92887 6.68296 8.01667 6.471 8.01667 6.24999C8.01667 6.02898 7.92887 5.81701 7.77259 5.66073C7.61631 5.50445 7.40435 5.41666 7.18333 5.41666H5.18333C6.10206 4.45655 7.28674 3.79291 8.58533 3.51091C9.88392 3.22892 11.2372 3.34144 12.4713 3.83404C13.7055 4.32664 14.7643 5.17683 15.5119 6.27549C16.2594 7.37415 16.6615 8.67114 16.6667 9.99999C16.6667 10.221 16.7545 10.433 16.9107 10.5892C17.067 10.7455 17.279 10.8333 17.5 10.8333C17.721 10.8333 17.933 10.7455 18.0893 10.5892C18.2455 10.433 18.3333 10.221 18.3333 9.99999C18.3333 8.90564 18.1178 7.82201 17.699 6.81096C17.2802 5.79991 16.6664 4.88125 15.8926 4.10743C15.1187 3.33361 14.2001 2.71978 13.189 2.30099C12.178 1.8822 11.0943 1.66666 10 1.66666Z" fill="white"/>
</svg>
