<svg width="20" height="20" viewBox="0 0 20 20" fill="none" xmlns="http://www.w3.org/2000/svg">
<path d="M17.225 8.07501L11.6667 4.86668C11.3287 4.67251 10.9456 4.57054 10.5558 4.57099C10.166 4.57143 9.78316 4.67427 9.44561 4.8692C9.10806 5.06414 8.82764 5.34433 8.63243 5.68173C8.43723 6.01913 8.33408 6.40188 8.33333 6.79168L5 4.86668C4.662 4.67251 4.27893 4.57054 3.88913 4.57099C3.49934 4.57143 3.1165 4.67427 2.77894 4.8692C2.44139 5.06414 2.16097 5.34433 1.96577 5.68173C1.77056 6.01913 1.66742 6.40188 1.66666 6.79168V13.2083C1.66463 13.5975 1.76623 13.9801 1.96101 14.3169C2.15579 14.6538 2.43674 14.9327 2.775 15.125C3.1125 15.3268 3.49841 15.4334 3.89166 15.4333C4.28089 15.4313 4.66286 15.3279 5 15.1333L8.33333 13.2083C8.33154 13.5985 8.43317 13.9822 8.62785 14.3203C8.82254 14.6585 9.10333 14.939 9.44166 15.1333C9.77963 15.3295 10.1634 15.4327 10.5542 15.4327C10.9449 15.4327 11.3287 15.3295 11.6667 15.1333L17.225 11.925C17.5623 11.7295 17.8424 11.4487 18.0371 11.1109C18.2317 10.773 18.3342 10.3899 18.3342 10C18.3342 9.61009 18.2317 9.22701 18.0371 8.88916C17.8424 8.55131 17.5623 8.27055 17.225 8.07501ZM8.33333 11.2833L4.16666 13.6833C4.08252 13.731 3.98745 13.756 3.89076 13.7558C3.79407 13.7557 3.69907 13.7304 3.61507 13.6826C3.53107 13.6347 3.46094 13.5658 3.41155 13.4827C3.36216 13.3995 3.33521 13.305 3.33333 13.2083V6.79168C3.33521 6.69501 3.36216 6.60048 3.41155 6.51735C3.46094 6.43422 3.53107 6.36535 3.61507 6.31747C3.69907 6.26958 3.79407 6.24434 3.89076 6.2442C3.98745 6.24406 4.08252 6.26904 4.16666 6.31668L8.33333 8.71668V11.2833ZM16.3917 10.45L10.8333 13.6917C10.7479 13.7391 10.6519 13.764 10.5542 13.764C10.4565 13.764 10.3604 13.7391 10.275 13.6917C10.1903 13.6428 10.1202 13.5723 10.0719 13.4873C10.0236 13.4024 9.99875 13.3061 10 13.2083V6.79168C9.99875 6.69395 10.0236 6.59765 10.0719 6.5127C10.1202 6.42775 10.1903 6.35721 10.275 6.30835C10.3625 6.2621 10.4594 6.23645 10.5583 6.23335C10.6552 6.23251 10.7503 6.25846 10.8333 6.30835L16.3917 9.51668C16.4764 9.56571 16.5468 9.63618 16.5958 9.72102C16.6447 9.80585 16.6705 9.90207 16.6705 10C16.6705 10.098 16.6447 10.1942 16.5958 10.279C16.5468 10.3638 16.4764 10.4343 16.3917 10.4833V10.45Z" fill="white"/>
</svg>
