<svg width="20" height="20" viewBox="0 0 20 20" fill="none" xmlns="http://www.w3.org/2000/svg">
<path d="M19.1592 3.29166C19.1591 3.14457 19.1202 3.00011 19.0463 2.87296C18.9723 2.7458 18.8661 2.64047 18.7383 2.56768C18.6104 2.49489 18.4656 2.45722 18.3186 2.4585C18.1715 2.45979 18.0274 2.49998 17.9008 2.57499C17.4129 2.86567 16.8874 3.08828 16.3392 3.23666C15.5566 2.56522 14.5586 2.19783 13.5275 2.20166C12.3964 2.20301 11.3102 2.64385 10.4981 3.43109C9.68595 4.21833 9.21154 5.29036 9.175 6.42083C6.94483 6.06526 4.92356 4.90127 3.49667 3.15083C3.41069 3.04664 3.30094 2.96462 3.17666 2.91169C3.05238 2.85876 2.9172 2.83646 2.7825 2.84666C2.64783 2.85781 2.5179 2.90156 2.40393 2.97416C2.28996 3.04675 2.19537 3.146 2.12833 3.26333C1.7846 3.86324 1.5872 4.53577 1.55216 5.22629C1.51712 5.91681 1.64543 6.60586 1.92667 7.23749L1.925 7.23833C1.79832 7.31617 1.69378 7.42526 1.6214 7.55513C1.54902 7.68501 1.51123 7.83131 1.51167 7.97999C1.51033 8.10232 1.51785 8.22458 1.53417 8.34583C1.61927 9.3942 2.08386 10.3755 2.84084 11.1058C2.78947 11.2038 2.75815 11.3109 2.7487 11.4211C2.73926 11.5313 2.75188 11.6423 2.78584 11.7475C3.11582 12.776 3.81772 13.6443 4.75417 14.1825C3.80264 14.5504 2.77525 14.6786 1.7625 14.5558C1.57515 14.5325 1.38543 14.5735 1.22443 14.6721C1.06342 14.7707 0.940674 14.9211 0.876285 15.0986C0.811896 15.2761 0.809683 15.4702 0.870008 15.6491C0.930334 15.828 1.04962 15.9811 1.20834 16.0833C2.95018 17.205 4.97823 17.8013 7.05 17.8008C9.39937 17.8273 11.6916 17.0766 13.5702 15.6655C15.4488 14.2544 16.8084 12.262 17.4375 9.99833C17.7316 9.0123 17.8818 7.98895 17.8833 6.95999L17.8825 6.79333C18.3176 6.32399 18.6547 5.77252 18.8739 5.17122C19.0931 4.56993 19.1901 3.93092 19.1592 3.29166ZM16.4042 5.96833C16.2664 6.13101 16.1965 6.34051 16.2092 6.55333C16.2175 6.69083 16.2167 6.82916 16.2167 6.95999C16.2149 7.82931 16.0875 8.6938 15.8383 9.52666C15.3247 11.453 14.1795 13.1513 12.5861 14.3494C10.9926 15.5476 9.04322 16.1764 7.05 16.135C6.33428 16.1351 5.62103 16.0509 4.925 15.8842C5.81276 15.5979 6.6428 15.1566 7.37667 14.5808C7.51199 14.4744 7.61105 14.3287 7.66022 14.1638C7.7094 13.9988 7.70628 13.8227 7.6513 13.6595C7.59631 13.4964 7.49216 13.3543 7.35316 13.2528C7.21416 13.1513 7.04712 13.0953 6.875 13.0925C6.18227 13.0817 5.5208 12.8023 5.03 12.3133C5.15445 12.29 5.27806 12.2608 5.40084 12.2258C5.58086 12.1746 5.73841 12.0644 5.84812 11.9127C5.95782 11.7611 6.01329 11.577 6.00559 11.39C5.99789 11.203 5.92747 11.024 5.80567 10.8819C5.68387 10.7398 5.51779 10.6429 5.33417 10.6067C4.93208 10.5272 4.55372 10.3561 4.22853 10.1067C3.90333 9.85722 3.64005 9.53611 3.45917 9.16833C3.6098 9.18891 3.76139 9.20171 3.91334 9.20666C4.0939 9.20963 4.27073 9.15501 4.41816 9.05073C4.5656 8.94644 4.67599 8.79791 4.73334 8.62666C4.78838 8.45396 4.78561 8.26803 4.72546 8.09705C4.66531 7.92606 4.55105 7.77935 4.4 7.67916C4.03328 7.43505 3.73284 7.10378 3.5256 6.71503C3.31835 6.32628 3.21077 5.8922 3.2125 5.45166C3.2125 5.39666 3.21417 5.34083 3.2175 5.28666C5.08539 7.02885 7.50826 8.05584 10.0592 8.18666C10.188 8.19155 10.3162 8.16708 10.4342 8.11511C10.5521 8.06313 10.6567 7.98501 10.74 7.88666C10.8225 7.7877 10.881 7.67095 10.9108 7.54559C10.9405 7.42023 10.9409 7.28966 10.9117 7.16416C10.864 6.96517 10.8396 6.76129 10.8392 6.55666C10.84 5.84394 11.1236 5.16066 11.6275 4.65669C12.1315 4.15273 12.8148 3.86921 13.5275 3.86833C13.8943 3.86724 14.2573 3.94222 14.5937 4.08852C14.93 4.23482 15.2324 4.44927 15.4817 4.71833C15.5778 4.82176 15.6988 4.89888 15.8331 4.94235C15.9675 4.98582 16.1107 4.99418 16.2492 4.96666C16.5915 4.90012 16.9289 4.81047 17.2592 4.69833C17.034 5.15901 16.7463 5.58639 16.4042 5.96833Z" fill="white"/>
</svg>
