<svg width="20" height="20" viewBox="0 0 20 20" fill="none" xmlns="http://www.w3.org/2000/svg">
<path d="M10.3583 3.41665C10.223 3.3581 10.0746 3.33651 9.92816 3.35408C9.78176 3.37165 9.64264 3.42775 9.525 3.51665L5.54167 6.66665H2.50001C2.27899 6.66665 2.06703 6.75445 1.91075 6.91073C1.75447 7.06701 1.66667 7.27897 1.66667 7.49999V12.5C1.66667 12.721 1.75447 12.933 1.91075 13.0892C2.06703 13.2455 2.27899 13.3333 2.50001 13.3333H5.54167L9.48334 16.4833C9.62995 16.601 9.81203 16.6656 10 16.6667C10.1245 16.6687 10.2475 16.6401 10.3583 16.5833C10.5001 16.5158 10.62 16.4095 10.704 16.2768C10.7881 16.1441 10.8329 15.9904 10.8333 15.8333V4.16665C10.8329 4.00958 10.7881 3.85583 10.704 3.72313C10.62 3.59044 10.5001 3.48419 10.3583 3.41665V3.41665ZM9.16667 14.1L6.35 11.85C6.20339 11.7324 6.02131 11.6677 5.83334 11.6667H3.33334V8.33332H5.83334C6.02131 8.33223 6.20339 8.26762 6.35 8.14999L9.16667 5.89999V14.1ZM16.3833 5.28332C16.2264 5.1264 16.0136 5.03824 15.7917 5.03824C15.5698 5.03824 15.3569 5.1264 15.2 5.28332C15.0431 5.44024 14.9549 5.65307 14.9549 5.87499C14.9549 6.0969 15.0431 6.30973 15.2 6.46665C15.6907 6.9566 16.0741 7.54326 16.3259 8.18936C16.5777 8.83546 16.6924 9.52687 16.6626 10.2197C16.6328 10.9125 16.4593 11.5915 16.153 12.2136C15.8466 12.8357 15.4143 13.3873 14.8833 13.8333C14.7544 13.9436 14.6622 14.0906 14.619 14.2546C14.5758 14.4187 14.5838 14.592 14.6417 14.7515C14.6997 14.9109 14.805 15.0489 14.9434 15.1469C15.0819 15.2449 15.247 15.2983 15.4167 15.3C15.6114 15.3004 15.8001 15.2326 15.95 15.1083C16.6591 14.5144 17.2369 13.7794 17.6466 12.9501C18.0562 12.1208 18.2888 11.2153 18.3296 10.2912C18.3703 9.36713 18.2184 8.44468 17.8833 7.58252C17.5482 6.72036 17.0374 5.93736 16.3833 5.28332V5.28332ZM14.025 7.64165C13.9473 7.56395 13.8551 7.50232 13.7535 7.46027C13.652 7.41822 13.5432 7.39658 13.4333 7.39658C13.3235 7.39658 13.2146 7.41822 13.1131 7.46027C13.0116 7.50232 12.9194 7.56395 12.8417 7.64165C12.764 7.71935 12.7023 7.81159 12.6603 7.91311C12.6182 8.01463 12.5966 8.12344 12.5966 8.23332C12.5966 8.3432 12.6182 8.45201 12.6603 8.55353C12.7023 8.65504 12.764 8.74729 12.8417 8.82499C13.1547 9.13611 13.3315 9.55867 13.3333 9.99999C13.3335 10.2428 13.2807 10.4827 13.1785 10.7029C13.0763 10.9231 12.9272 11.1184 12.7417 11.275C12.6573 11.3449 12.5875 11.4309 12.5364 11.5278C12.4853 11.6248 12.4538 11.7309 12.4437 11.84C12.4337 11.9492 12.4452 12.0592 12.4778 12.1639C12.5103 12.2686 12.5632 12.3658 12.6333 12.45C12.7039 12.5338 12.7903 12.6028 12.8875 12.6532C12.9848 12.7036 13.091 12.7343 13.2001 12.7436C13.3092 12.7528 13.4191 12.7405 13.5235 12.7073C13.6279 12.6741 13.7246 12.6206 13.8083 12.55C14.1809 12.2376 14.4807 11.8474 14.6865 11.4069C14.8924 10.9664 14.9994 10.4862 15 9.99999C14.9953 9.11674 14.6454 8.27036 14.025 7.64165V7.64165Z" fill="white"/>
</svg>
