<svg width="20" height="20" viewBox="0 0 20 20" fill="none" xmlns="http://www.w3.org/2000/svg">
<path d="M15.6917 7.64165C15.614 7.56395 15.5217 7.50232 15.4202 7.46027C15.3187 7.41822 15.2099 7.39658 15.1 7.39658C14.9901 7.39658 14.8813 7.41822 14.7798 7.46027C14.6783 7.50232 14.586 7.56395 14.5083 7.64165C14.4306 7.71935 14.369 7.81159 14.3269 7.91311C14.2849 8.01463 14.2633 8.12344 14.2633 8.23332C14.2633 8.3432 14.2849 8.45201 14.3269 8.55353C14.369 8.65504 14.4306 8.74729 14.5083 8.82499C14.8213 9.13611 14.9981 9.55867 15 9.99999C15.0002 10.2428 14.9473 10.4827 14.8451 10.7029C14.7429 10.9231 14.5939 11.1184 14.4083 11.275C14.3239 11.3449 14.2542 11.4309 14.2031 11.5278C14.1519 11.6248 14.1204 11.7309 14.1104 11.84C14.1003 11.9492 14.1119 12.0592 14.1444 12.1639C14.177 12.2686 14.2298 12.3658 14.3 12.45C14.3705 12.5338 14.4569 12.6028 14.5542 12.6532C14.6514 12.7036 14.7576 12.7343 14.8668 12.7436C14.9759 12.7528 15.0858 12.7405 15.1901 12.7073C15.2945 12.6741 15.3913 12.6206 15.475 12.55C15.8476 12.2376 16.1473 11.8474 16.3532 11.4069C16.559 10.9664 16.666 10.4862 16.6667 9.99999C16.662 9.11674 16.312 8.27036 15.6917 7.64165V7.64165ZM12.025 3.41665C11.8897 3.3581 11.7412 3.33651 11.5948 3.35408C11.4484 3.37165 11.3093 3.42775 11.1917 3.51665L7.20833 6.66665H4.16666C3.94565 6.66665 3.73369 6.75445 3.57741 6.91073C3.42113 7.06701 3.33333 7.27897 3.33333 7.49999V12.5C3.33333 12.721 3.42113 12.933 3.57741 13.0892C3.73369 13.2455 3.94565 13.3333 4.16666 13.3333H7.20833L11.15 16.4833C11.2966 16.601 11.4787 16.6656 11.6667 16.6667C11.7911 16.6687 11.9142 16.6401 12.025 16.5833C12.1668 16.5158 12.2866 16.4095 12.3707 16.2768C12.4547 16.1441 12.4996 15.9904 12.5 15.8333V4.16665C12.4996 4.00958 12.4547 3.85583 12.3707 3.72313C12.2866 3.59044 12.1668 3.48419 12.025 3.41665V3.41665ZM10.8333 14.1L8.01666 11.85C7.87005 11.7324 7.68797 11.6677 7.49999 11.6667H4.99999V8.33332H7.49999C7.68797 8.33223 7.87005 8.26762 8.01666 8.14999L10.8333 5.89999V14.1Z" fill="white"/>
</svg>
