<svg width="20" height="20" viewBox="0 0 20 20" fill="none" xmlns="http://www.w3.org/2000/svg">
<path d="M10.3583 3.41665C10.223 3.3581 10.0746 3.33651 9.92816 3.35408C9.78176 3.37165 9.64264 3.42775 9.525 3.51665L5.54167 6.66665H2.50001C2.27899 6.66665 2.06703 6.75445 1.91075 6.91073C1.75447 7.06701 1.66667 7.27897 1.66667 7.49999V12.5C1.66667 12.721 1.75447 12.933 1.91075 13.0892C2.06703 13.2455 2.27899 13.3333 2.50001 13.3333H5.54167L9.48334 16.4833C9.62995 16.601 9.81203 16.6656 10 16.6667C10.1245 16.6687 10.2475 16.6401 10.3583 16.5833C10.5001 16.5158 10.62 16.4095 10.704 16.2768C10.7881 16.1441 10.8329 15.9904 10.8333 15.8333V4.16665C10.8329 4.00958 10.7881 3.85583 10.704 3.72313C10.62 3.59044 10.5001 3.48419 10.3583 3.41665V3.41665ZM9.16667 14.1L6.35 11.85C6.20339 11.7324 6.02131 11.6677 5.83334 11.6667H3.33334V8.33332H5.83334C6.02131 8.33223 6.20339 8.26762 6.35 8.14999L9.16667 5.89999V14.1ZM16.5917 9.99999L18.0917 8.50832C18.1694 8.43062 18.231 8.33838 18.2731 8.23686C18.3151 8.13534 18.3367 8.02654 18.3367 7.91665C18.3367 7.80677 18.3151 7.69796 18.2731 7.59644C18.231 7.49493 18.1694 7.40268 18.0917 7.32499C18.014 7.24729 17.9217 7.18565 17.8202 7.1436C17.7187 7.10155 17.6099 7.07991 17.5 7.07991C17.3901 7.07991 17.2813 7.10155 17.1798 7.1436C17.0783 7.18565 16.986 7.24729 16.9083 7.32499L15.4167 8.82499L13.925 7.32499C13.7681 7.16807 13.5553 7.07991 13.3333 7.07991C13.1114 7.07991 12.8986 7.16807 12.7417 7.32499C12.5848 7.48191 12.4966 7.69473 12.4966 7.91665C12.4966 8.13857 12.5848 8.3514 12.7417 8.50832L14.2417 9.99999L12.7417 11.4917C12.6636 11.5691 12.6016 11.6613 12.5593 11.7628C12.517 11.8644 12.4952 11.9733 12.4952 12.0833C12.4952 12.1933 12.517 12.3023 12.5593 12.4038C12.6016 12.5053 12.6636 12.5975 12.7417 12.675C12.8191 12.7531 12.9113 12.8151 13.0129 12.8574C13.1144 12.8997 13.2233 12.9215 13.3333 12.9215C13.4433 12.9215 13.5523 12.8997 13.6538 12.8574C13.7554 12.8151 13.8475 12.7531 13.925 12.675L15.4167 11.175L16.9083 12.675C16.9858 12.7531 17.078 12.8151 17.1795 12.8574C17.2811 12.8997 17.39 12.9215 17.5 12.9215C17.61 12.9215 17.7189 12.8997 17.8205 12.8574C17.922 12.8151 18.0142 12.7531 18.0917 12.675C18.1698 12.5975 18.2318 12.5053 18.2741 12.4038C18.3164 12.3023 18.3382 12.1933 18.3382 12.0833C18.3382 11.9733 18.3164 11.8644 18.2741 11.7628C18.2318 11.6613 18.1698 11.5691 18.0917 11.4917L16.5917 9.99999Z" fill="white"/>
</svg>
