<svg width="20" height="20" viewBox="0 0 20 20" fill="none" xmlns="http://www.w3.org/2000/svg">
<path d="M10.3583 3.41665C10.223 3.3581 10.0746 3.33651 9.92815 3.35408C9.78175 3.37165 9.64263 3.42775 9.52499 3.51665L5.54166 6.66665H2.49999C2.27898 6.66665 2.06701 6.75445 1.91073 6.91073C1.75445 7.06701 1.66666 7.27897 1.66666 7.49999V12.5C1.66666 12.721 1.75445 12.933 1.91073 13.0892C2.06701 13.2455 2.27898 13.3333 2.49999 13.3333H5.54166L9.48332 16.4833C9.62994 16.601 9.81202 16.6656 9.99999 16.6667C10.1245 16.6687 10.2475 16.6401 10.3583 16.5833C10.5001 16.5158 10.62 16.4095 10.704 16.2768C10.7881 16.1441 10.8329 15.9904 10.8333 15.8333V4.16665C10.8329 4.00958 10.7881 3.85583 10.704 3.72313C10.62 3.59044 10.5001 3.48419 10.3583 3.41665V3.41665ZM9.16666 14.1L6.34999 11.85C6.20337 11.7324 6.02129 11.6677 5.83332 11.6667H3.33332V8.33332H5.83332C6.02129 8.33223 6.20337 8.26762 6.34999 8.14999L9.16666 5.89999V14.1ZM12.6167 3.40832C12.5072 3.393 12.3958 3.39938 12.2889 3.42711C12.1819 3.45483 12.0814 3.50335 11.9932 3.5699C11.905 3.63645 11.8308 3.71972 11.7747 3.81496C11.7187 3.91021 11.682 4.01555 11.6667 4.12499C11.6513 4.23442 11.6577 4.3458 11.6854 4.45277C11.7132 4.55974 11.7617 4.6602 11.8282 4.74841C11.9626 4.92657 12.1623 5.04404 12.3833 5.07499C13.5635 5.25686 14.6396 5.85509 15.417 6.76148C16.1944 7.66786 16.6218 8.82254 16.6218 10.0167C16.6218 11.2108 16.1944 12.3654 15.417 13.2718C14.6396 14.1782 13.5635 14.7764 12.3833 14.9583C12.1623 14.9738 11.9565 15.0764 11.8112 15.2436C11.6658 15.4109 11.5929 15.629 11.6083 15.85C11.6238 16.071 11.7264 16.2768 11.8936 16.4222C12.0609 16.5675 12.279 16.6405 12.5 16.625H12.6167C14.194 16.3864 15.6335 15.59 16.6738 14.3805C17.7141 13.1711 18.2861 11.6286 18.2861 10.0333C18.2861 8.43801 17.7141 6.89559 16.6738 5.6861C15.6335 4.47662 14.194 3.68028 12.6167 3.44165V3.40832ZM12.2333 11.5583C12.0123 11.5937 11.8144 11.7154 11.6831 11.8967C11.5518 12.078 11.498 12.304 11.5333 12.525C11.5687 12.746 11.6904 12.9439 11.8717 13.0752C12.053 13.2065 12.279 13.2603 12.5 13.225C12.5904 13.224 12.6802 13.2099 12.7667 13.1833C13.4158 12.9531 13.9778 12.5275 14.3752 11.9649C14.7726 11.4023 14.986 10.7304 14.986 10.0417C14.986 9.35286 14.7726 8.68099 14.3752 8.11841C13.9778 7.55583 13.4158 7.13018 12.7667 6.89999C12.5567 6.82926 12.3272 6.84484 12.1288 6.9433C11.9303 7.04175 11.779 7.21502 11.7083 7.42499C11.6376 7.63495 11.6532 7.86441 11.7516 8.06288C11.8501 8.26136 12.0234 8.41259 12.2333 8.48332C12.5495 8.60326 12.8218 8.81657 13.0139 9.09491C13.206 9.37325 13.3089 9.70345 13.3089 10.0417C13.3089 10.3799 13.206 10.7101 13.0139 10.9884C12.8218 11.2667 12.5495 11.48 12.2333 11.6V11.5583Z" fill="white"/>
</svg>
