<svg width="20" height="20" viewBox="0 0 20 20" fill="none" xmlns="http://www.w3.org/2000/svg">
<path d="M14.1083 3.41665C13.973 3.3581 13.8246 3.33651 13.6782 3.35408C13.5318 3.37165 13.3926 3.42775 13.275 3.51665L9.29167 6.66665H6.25001C6.02899 6.66665 5.81703 6.75445 5.66075 6.91073C5.50447 7.06701 5.41667 7.27897 5.41667 7.49999V12.5C5.41667 12.721 5.50447 12.933 5.66075 13.0892C5.81703 13.2455 6.02899 13.3333 6.25001 13.3333H9.29167L13.2333 16.4833C13.38 16.601 13.562 16.6656 13.75 16.6667C13.8745 16.6687 13.9975 16.6401 14.1083 16.5833C14.2501 16.5158 14.37 16.4095 14.454 16.2768C14.5381 16.1441 14.5829 15.9904 14.5833 15.8333V4.16665C14.5829 4.00958 14.5381 3.85583 14.454 3.72313C14.37 3.59044 14.2501 3.48419 14.1083 3.41665V3.41665ZM12.9167 14.1L10.1 11.85C9.95339 11.7324 9.77131 11.6677 9.58334 11.6667H7.08334V8.33332H9.58334C9.77131 8.33223 9.95339 8.26762 10.1 8.14999L12.9167 5.89999V14.1Z" fill="white"/>
</svg>
