<svg width="20" height="20" viewBox="0 0 20 20" fill="none" xmlns="http://www.w3.org/2000/svg">
<path d="M10 13.3333C9.83518 13.3333 9.67406 13.3822 9.53702 13.4738C9.39998 13.5653 9.29317 13.6955 9.2301 13.8478C9.16703 14 9.15052 14.1676 9.18268 14.3292C9.21483 14.4909 9.2942 14.6394 9.41074 14.7559C9.52729 14.8725 9.67577 14.9518 9.83742 14.984C9.99907 15.0161 10.1666 14.9996 10.3189 14.9366C10.4712 14.8735 10.6013 14.7667 10.6929 14.6296C10.7845 14.4926 10.8333 14.3315 10.8333 14.1667C10.8333 13.9456 10.7455 13.7337 10.5893 13.5774C10.433 13.4211 10.221 13.3333 10 13.3333ZM18.8917 14.5583L12.1833 2.89166C11.9665 2.50292 11.6498 2.17912 11.266 1.95372C10.8822 1.72831 10.4451 1.60947 10 1.60947C9.55488 1.60947 9.11783 1.72831 8.734 1.95372C8.35018 2.17912 8.03349 2.50292 7.81667 2.89166L1.15 14.5583C0.925662 14.9367 0.805117 15.3675 0.800535 15.8073C0.795954 16.2472 0.907497 16.6804 1.1239 17.0634C1.34031 17.4463 1.65392 17.7654 2.03307 17.9883C2.41222 18.2113 2.84349 18.3303 3.28333 18.3333H16.7167C17.16 18.3377 17.5966 18.2241 17.9816 18.0041C18.3666 17.7841 18.6861 17.4657 18.9075 17.0815C19.1288 16.6973 19.244 16.2612 19.2413 15.8178C19.2385 15.3744 19.1178 14.9397 18.8917 14.5583ZM17.45 16.225C17.377 16.3549 17.2704 16.4629 17.1414 16.5377C17.0124 16.6124 16.8657 16.6512 16.7167 16.65H3.28333C3.13426 16.6512 2.98758 16.6124 2.8586 16.5377C2.72961 16.4629 2.62304 16.3549 2.55 16.225C2.47686 16.0983 2.43835 15.9546 2.43835 15.8083C2.43835 15.662 2.47686 15.5183 2.55 15.3917L9.21667 3.72499C9.2866 3.58849 9.39284 3.47394 9.5237 3.39394C9.65456 3.31395 9.80496 3.27163 9.95833 3.27163C10.1117 3.27163 10.2621 3.31395 10.393 3.39394C10.5238 3.47394 10.6301 3.58849 10.7 3.72499L17.4083 15.3917C17.491 15.5165 17.5385 15.6614 17.5458 15.8109C17.5532 15.9605 17.5201 16.1093 17.45 16.2417V16.225ZM10 6.66666C9.77898 6.66666 9.56702 6.75446 9.41074 6.91074C9.25446 7.06702 9.16667 7.27898 9.16667 7.49999V10.8333C9.16667 11.0543 9.25446 11.2663 9.41074 11.4226C9.56702 11.5789 9.77898 11.6667 10 11.6667C10.221 11.6667 10.433 11.5789 10.5893 11.4226C10.7455 11.2663 10.8333 11.0543 10.8333 10.8333V7.49999C10.8333 7.27898 10.7455 7.06702 10.5893 6.91074C10.433 6.75446 10.221 6.66666 10 6.66666Z" fill="#EB0400"/>
</svg>
